# xmcd
# Track frame offsets:
# 150
# 15423
# 29571
# 42250
# 53281
# 74757
# 87550
# 104335
# 118362
# 138858
#
# Disc length: 2008 seconds
# Revision: 0
# Processed by: cddbd v1.4PL0 Copyright (c) Steve Scherf et al.
# Submitted via: VisiTrax 2.9.5.181 - For more info visit www.synapsa.com
#
DISCID=8807d60a
DTITLE=Conway Twitty - A Night With Conway Twitty
DYEAR=1900
DGENRE=
TTITLE0=I'd Love To Lay You Down
TTITLE1=You've Never Been This Far Before
TTITLE2=I've Already Loved You In My Mind
TTITLE3=(I Can't Believe) She Gives It All To Me
TTITLE4=Red Neckin' Love Makin' Night
TTITLE5=I See The Want To In Your Eyes
TTITLE6=Don't Take It Away
TTITLE7=Slow Lovemakin'
TTITLE8=Rest Your Love On Me
TTITLE9=I'm Not Through Loving You Yet
EXTD=
EXTT0=
EXTT1=
EXTT2=
EXTT3=
EXTT4=
EXTT5=
EXTT6=
EXTT7=
EXTT8=
EXTT9=
PLAYORDER=
